<svg id="图层_1" data-name="图层 1" xmlns="http://www.w3.org/2000/svg" viewBox="0 0 199.8 26.88"><defs><style>.cls-1{fill:#000;}</style></defs><title>codesign-text</title><g id="SvgjsG2222"><path class="cls-1" d="M14.72,62.14a1.3,1.3,0,0,1-.77-.43,1.27,1.27,0,0,1-.3-.83V58.27a1.19,1.19,0,0,1,.43-1,1.25,1.25,0,0,1,1-.29,13,13,0,0,1,5.48,2.19,12.06,12.06,0,0,1,4.41,6,1.24,1.24,0,0,1-.14,1.15,1.19,1.19,0,0,1-1,.53H20.92a1.33,1.33,0,0,1-.71-.19,1.13,1.13,0,0,1-.47-.56,6.76,6.76,0,0,0-2.4-3A6.8,6.8,0,0,0,14.72,62.14ZM23.79,74a1.18,1.18,0,0,1,1,.54A1.22,1.22,0,0,1,25,75.71a12.09,12.09,0,0,1-4.41,6,13,13,0,0,1-5.48,2.18H14.9a1.12,1.12,0,0,1-.82-.32,1.1,1.1,0,0,1-.43-.93V80a1.28,1.28,0,0,1,.29-.82,1.15,1.15,0,0,1,.75-.43,6.28,6.28,0,0,0,2.65-1,6.84,6.84,0,0,0,2.4-3,1.1,1.1,0,0,1,.47-.55,1.25,1.25,0,0,1,.71-.2ZM11,57.44a1.16,1.16,0,0,1,.47,1V61.2a1.17,1.17,0,0,1-.27.74,1.49,1.49,0,0,1-.66.48,3.52,3.52,0,0,0-.79.25,7.24,7.24,0,0,0-2.44,1.76,8.69,8.69,0,0,0-2,6,8.85,8.85,0,0,0,2,6,6.66,6.66,0,0,0,3.23,2,1.23,1.23,0,0,1,.66.45,1.16,1.16,0,0,1,.27.73v2.83a1.16,1.16,0,0,1-.47,1,1.19,1.19,0,0,1-.82.29H9.89A12,12,0,0,1,3.4,80,13.85,13.85,0,0,1,0,70.45a13.89,13.89,0,0,1,3.4-9.57,11.51,11.51,0,0,1,6.49-3.69A1.21,1.21,0,0,1,11,57.44Zm28.52-.14a1.19,1.19,0,0,1,.43,1V61a1.28,1.28,0,0,1-.27.81,1.24,1.24,0,0,1-.73.45A7.25,7.25,0,0,0,35,64.39a8.28,8.28,0,0,0-2.18,6,8.39,8.39,0,0,0,2.18,6,7.34,7.34,0,0,0,3.91,2.15,1.25,1.25,0,0,1,1,1.25v2.69a1.27,1.27,0,0,1-.43,1,1.38,1.38,0,0,1-.82.28h-.22a12.48,12.48,0,0,1-7.13-3.76,13.18,13.18,0,0,1-3.72-9.55,13.43,13.43,0,0,1,3.72-9.62,12.61,12.61,0,0,1,7.13-3.72A1.26,1.26,0,0,1,39.48,57.3Zm11.25,3.47a13.43,13.43,0,0,1,3.73,9.62,13.19,13.19,0,0,1-3.73,9.55A12.48,12.48,0,0,1,43.6,83.7h-.22a1.38,1.38,0,0,1-.82-.28,1.27,1.27,0,0,1-.43-1V79.76a1.25,1.25,0,0,1,1-1.25A7.34,7.34,0,0,0,47,76.36a8.39,8.39,0,0,0,2.18-6,8.28,8.28,0,0,0-2.18-6,7.25,7.25,0,0,0-3.91-2.18,1.24,1.24,0,0,1-.73-.45,1.28,1.28,0,0,1-.27-.81V58.27a1.17,1.17,0,0,1,.45-1,1.21,1.21,0,0,1,1-.25A12.61,12.61,0,0,1,50.73,60.77Zm24-2.83a10.72,10.72,0,0,1,3.94,2.65,13.21,13.21,0,0,1,3.76,9.7A13.29,13.29,0,0,1,78.71,80a10.6,10.6,0,0,1-3.94,2.65,12.06,12.06,0,0,1-4.62.93H60a1.28,1.28,0,0,1-1.26-1.25V79.76a1.24,1.24,0,0,1,.38-.91,1.2,1.2,0,0,1,.88-.38H70a6.48,6.48,0,0,0,5.18-2.33,9.6,9.6,0,0,0,0-11.68A6.51,6.51,0,0,0,70,62.14H60a1.2,1.2,0,0,1-.88-.38,1.25,1.25,0,0,1-.38-.91V58.27A1.3,1.3,0,0,1,60,57H70.15A12.06,12.06,0,0,1,74.77,57.94Zm31,20.5a1.17,1.17,0,0,1,.89.37,1.28,1.28,0,0,1,.36.92v2.61a1.22,1.22,0,0,1-.36.88,1.17,1.17,0,0,1-.89.37H88.06a1.21,1.21,0,0,1-.88-.37,1.19,1.19,0,0,1-.37-.88V79.73a1.25,1.25,0,0,1,.37-.92,1.21,1.21,0,0,1,.88-.37Zm-17.7-5.56a1.26,1.26,0,0,1-1.25-1.25V68.94a1.26,1.26,0,0,1,1.25-1.25h16.09a1.25,1.25,0,0,1,.91.37,1.22,1.22,0,0,1,.38.88v2.69a1.22,1.22,0,0,1-.38.88,1.25,1.25,0,0,1-.91.37ZM105.76,57a1.18,1.18,0,0,1,.89.38,1.22,1.22,0,0,1,.36.88v2.61a1.26,1.26,0,0,1-.36.91,1.14,1.14,0,0,1-.89.38H88.06a1.18,1.18,0,0,1-.88-.38,1.23,1.23,0,0,1-.37-.91V58.27a1.19,1.19,0,0,1,.37-.88,1.22,1.22,0,0,1,.88-.38ZM128.87,70.3a7,7,0,0,1,2.34,2.37,6.09,6.09,0,0,1,.81,3.11,7.1,7.1,0,0,1-3.08,6.2,11.6,11.6,0,0,1-5.63,1.9h-.14a1.15,1.15,0,0,1-.83-.32,1.24,1.24,0,0,1-.43-.93V80.05a1.2,1.2,0,0,1,.33-.83,1.32,1.32,0,0,1,.79-.43,6,6,0,0,0,2.61-.78,2.2,2.2,0,0,0,1-1.11,3.19,3.19,0,0,0,.14-1,1.59,1.59,0,0,0-.14-.68,1.56,1.56,0,0,0-.5-.54,9.93,9.93,0,0,0-2.69-1.21l-.57-.18c-1.2-.34-2.3-.61-3.3-.83-.21,0-.56-.13-1-.25l-.39-.11a21,21,0,0,1-2.73-.89,10.92,10.92,0,0,1-3.47-2.26,5.61,5.61,0,0,1-1.58-4.15A7.08,7.08,0,0,1,113.07,59a9.89,9.89,0,0,1,5.23-2,1.14,1.14,0,0,1,1,.32,1.25,1.25,0,0,1,.41.94v2.58a1.27,1.27,0,0,1-.28.82,1.05,1.05,0,0,1-.74.41,4.89,4.89,0,0,0-2.38,1,2.32,2.32,0,0,0-.61.77A4,4,0,0,0,115.5,65a.9.9,0,0,0,.32.6,4.41,4.41,0,0,0,1.47.9c.29.12.79.3,1.51.54l4.48,1.11.21.07c1.12.31,1.94.55,2.44.72a12.92,12.92,0,0,1,2.94,1.39Zm-6-8.09a1.26,1.26,0,0,1-.7-.45,1.28,1.28,0,0,1-.27-.81V58.34a1.23,1.23,0,0,1,.47-1,.84.84,0,0,1,.47-.23,1.6,1.6,0,0,1,.53,0,10.31,10.31,0,0,1,5.13,2.15,7.57,7.57,0,0,1,2.86,5.66,1.28,1.28,0,0,1-1.25,1.32h-2.8a1.16,1.16,0,0,1-.82-.32,1.12,1.12,0,0,1-.39-.79,3.4,3.4,0,0,0-.61-1.54,4.73,4.73,0,0,0-2.33-1.36.22.22,0,0,1-.14,0Zm-4.19,16.44a1.13,1.13,0,0,1,.72.43,1.23,1.23,0,0,1,.28.79v2.65a1.2,1.2,0,0,1-1.25,1.25h-.18a11.46,11.46,0,0,1-5.48-2.18,8.53,8.53,0,0,1-3.15-6.2,1.14,1.14,0,0,1,.32-1,1.23,1.23,0,0,1,.93-.42h2.83A1.25,1.25,0,0,1,115,75.18a3.29,3.29,0,0,0,1.76,2.75,7.3,7.3,0,0,0,2,.72Zm21.46-11a1.2,1.2,0,0,1,.9.38,1.29,1.29,0,0,1,.35.91v13.4a1.26,1.26,0,0,1-.35.88,1.19,1.19,0,0,1-.9.37h-2.72a1.28,1.28,0,0,1-1.26-1.25V68.94a1.24,1.24,0,0,1,.38-.91,1.2,1.2,0,0,1,.88-.38Zm0-10.64a1.2,1.2,0,0,1,.9.38,1.26,1.26,0,0,1,.35.88v6.62a1.32,1.32,0,0,1-.35.92,1.19,1.19,0,0,1-.9.37h-2.72a1.19,1.19,0,0,1-.88-.37,1.26,1.26,0,0,1-.38-.92V58.27A1.3,1.3,0,0,1,137.43,57Zm21.14,5.2a1.13,1.13,0,0,1-.72-.43,1.24,1.24,0,0,1-.29-.79V58.27a1.37,1.37,0,0,1,.43-1,1.26,1.26,0,0,1,1-.25,12.66,12.66,0,0,1,7.17,3.76,13.16,13.16,0,0,1,2.43,3.58,1,1,0,0,1,.13.58,1.23,1.23,0,0,1-.2.6,1.29,1.29,0,0,1-.45.45,1.07,1.07,0,0,1-.59.16h-3a1.18,1.18,0,0,1-.61-.16,1.27,1.27,0,0,1-.47-.45,7.58,7.58,0,0,0-.93-1.18A7.73,7.73,0,0,0,161.29,62.21Zm-3.66-4.91a1.33,1.33,0,0,1,.43,1V61a1.23,1.23,0,0,1-.28.79,1.13,1.13,0,0,1-.72.43,7.81,7.81,0,0,0-3.91,2.18,9.22,9.22,0,0,0,0,12,7.49,7.49,0,0,0,3.91,2.19,1.13,1.13,0,0,1,.72.43,1.23,1.23,0,0,1,.28.79v2.72a1.25,1.25,0,0,1-1.25,1.25h-.22A12.81,12.81,0,0,1,149.43,80a13.23,13.23,0,0,1-3.73-9.59,13.22,13.22,0,0,1,3.73-9.58,12.48,12.48,0,0,1,7.16-3.76,1.25,1.25,0,0,1,1,.25Zm15,12.36a6.94,6.94,0,0,1,0,.75,18.23,18.23,0,0,1-.1,1.83A13.09,13.09,0,0,1,168.92,80a12.82,12.82,0,0,1-7.17,3.79h-.21a1.41,1.41,0,0,1-.83-.28,1.37,1.37,0,0,1-.43-1V79.8a1.24,1.24,0,0,1,.29-.79,1.13,1.13,0,0,1,.72-.43,7.46,7.46,0,0,0,3.9-2.19,7.59,7.59,0,0,0,1.79-3h-7.59a1.23,1.23,0,0,1-1.26-1.26V69.55a1.24,1.24,0,0,1,.36-.88,1.19,1.19,0,0,1,.9-.37h12a1.17,1.17,0,0,1,.86.34,1.24,1.24,0,0,1,.4.84v.18ZM198.55,57a1.3,1.3,0,0,1,1.25,1.26v24a1.22,1.22,0,0,1-.38.88,1.19,1.19,0,0,1-.87.37h-3.16a1.25,1.25,0,0,1-1-.5L176.84,59a1.28,1.28,0,0,1-.26-.65,1.24,1.24,0,0,1,.13-.68,1.19,1.19,0,0,1,.47-.5,1.26,1.26,0,0,1,.66-.18H181a1.31,1.31,0,0,1,.57.13.83.83,0,0,1,.43.37L194.57,74.6V58.27a1.22,1.22,0,0,1,.36-.88,1.19,1.19,0,0,1,.89-.38Zm-18,17.38a1.22,1.22,0,0,1,.88.36,1.16,1.16,0,0,1,.38.89v6.63a1.22,1.22,0,0,1-.38.88,1.19,1.19,0,0,1-.88.37h-2.72a1.19,1.19,0,0,1-.88-.37,1.22,1.22,0,0,1-.38-.88V75.64a1.16,1.16,0,0,1,.38-.89,1.22,1.22,0,0,1,.88-.36Z" transform="translate(0 -57)"/></g></svg>